<svg id="Layer_1" data-name="Layer 1" xmlns="http://www.w3.org/2000/svg" viewBox="0 0 911.7 524.55"><defs><style>.cls-1{fill:#8bbdd6;}.cls-2,.cls-4{fill:none;stroke-miterlimit:10;}.cls-2{stroke:#fff;stroke-width:10px;}.cls-3{fill:#159ba6;}.cls-4{stroke:#159ba6;stroke-width:11px;}</style></defs><path class="cls-1" d="M623.3,334.34l-43.82-46.79-11.94-12.94a54.15,54.15,0,0,1,0-74.69h0a50,50,0,0,1,70.62-2.06c.7.67,1.39,1.35,2.06,2.06l9.93,9.93a3,3,0,0,0,4,0l9.93-9.93a50,50,0,0,1,70.64-2,27.54,27.54,0,0,1,2,2h0a54.16,54.16,0,0,1,0,74.69l-12,12.94L682,331.36l-27.87,28.87" transform="translate(-0.04 0.4)"/><polyline class="cls-2" points="598.06 274.05 614.03 274.05 633.94 254.13 653.86 293.97 673.78 244.17 693.69 274.05"/><path class="cls-3" d="M631.9,475.75H619.76V447.37c0-13.25,0-28.19-14.59-42.78L556,355a25,25,0,0,0-27-5.69V299.15a23,23,0,0,0-23-23h0c-11,0-19.08,7.61-22.78,21.44-1.69,6.32-3.91,17.54-6.25,29.43-2.66,13.46-5.67,28.69-8.34,38.79a43.62,43.62,0,0,0,13.77,41.67l48.43,48.46a12.85,12.85,0,0,1,4.25,12v7.88H523a6,6,0,0,0-6.06,6h0v36.33a6,6,0,0,0,6,6h109a6.06,6.06,0,0,0,6-6v-36.3a6.06,6.06,0,0,0-6-6Zm-141-76.94a31.81,31.81,0,0,1-10.48-30.39c2.67-9.93,5.6-24.79,8.42-39.11,2.31-11.68,4.48-22.71,6.07-28.69,2.21-8.27,6-12.46,11.12-12.46a10.9,10.9,0,0,1,10.9,10.9h0v60a25.19,25.19,0,0,0,3.31,31.71L556,426.44a6,6,0,1,0,8.57-8.54h0l-35.7-35.69a13.15,13.15,0,0,1,0-18.6h0v-.07a13.49,13.49,0,0,1,18.65,0l49.15,49.61c11,11,11,21.8,11,34.21v28.39H547.19v-7.86a24.54,24.54,0,0,0-7.83-20.61Zm135,113.25h-96.8V487.89h96.8Z" transform="translate(-0.04 0.4)"/><path class="cls-3" d="M831.33,365.28c-2.57-9.57-5.52-24.85-8.24-38.31-2.34-11.89-4.55-23.11-6.25-29.43-3.7-13.83-11.8-21.44-22.79-21.44a23,23,0,0,0-23,23v50.21a25,25,0,0,0-27,5.71L694.9,404.56c-14.6,14.59-14.6,29.59-14.6,42.81v28.38H668.16a6,6,0,0,0-6,6v36.4a6,6,0,0,0,6,6H777.07a6,6,0,0,0,6-6v-36.3a6,6,0,0,0-6-6H764.93V468a12.86,12.86,0,0,1,4.34-12l48.33-48.34A43.92,43.92,0,0,0,831.33,365.28ZM771,487.89v24.17H674.22V487.89Zm38.07-89-48.37,48.37a24.44,24.44,0,0,0-7.84,20.64v7.83H692.39V447.37c0-12.44,0-23.18,11-34.21l49.15-49.55a13.47,13.47,0,0,1,18.67,0,13.14,13.14,0,0,1,0,18.57h0v.07L735.58,417.9a6.05,6.05,0,1,0,8.54,8.58h0l35.7-35.72A25.23,25.23,0,0,0,783.13,359V299.15A10.91,10.91,0,0,1,794,288.24c5.15,0,8.9,4.2,11.11,12.46,1.59,5.94,3.77,17,6.07,28.69C814,343.74,817,358.53,819.52,368a32.09,32.09,0,0,1-10.45,30.9Z" transform="translate(-0.04 0.4)"/><path class="cls-4" d="M902.65,202.29l-68.91-57.38V16.15a9.71,9.71,0,0,0-9.31-10.1H763.22a9.69,9.69,0,0,0-10.07,9.3h0V77.66L676.42,13.29a39,39,0,0,0-47.82,0l-226.23,189a9.12,9.12,0,0,0-3.47,6.78,10.24,10.24,0,0,0,2.21,7.41l19.51,23.35a10.63,10.63,0,0,0,6.62,3.48,11.69,11.69,0,0,0,7.56-2.21L652.56,59,870.33,241.15a9.6,9.6,0,0,0,6.62,2.21h.95a10.76,10.76,0,0,0,6.62-3.46L904,216.49a10.17,10.17,0,0,0,2.2-7.41A9.18,9.18,0,0,0,902.65,202.29Z" transform="translate(-0.04 0.4)"/><path class="cls-1" d="M26.92,335.31a42.5,42.5,0,0,1-10.53-1.69,21.56,21.56,0,0,1-8-4.49A22.28,22.28,0,0,1,4.67,325a25.64,25.64,0,0,1-2.6-4.84,26.09,26.09,0,0,1-1.54-5.33A33.35,33.35,0,0,1,0,309.1a43.14,43.14,0,0,1,1.85-12.4,43.79,43.79,0,0,1,5.47-11.65l7.75,5.63a30.77,30.77,0,0,0-1.75,2.91,38.55,38.55,0,0,0-2,4.45,40.25,40.25,0,0,0-1.64,5.43,26.49,26.49,0,0,0-.67,5.87,13.77,13.77,0,0,0,1.48,6.37,15.37,15.37,0,0,0,4,4.94,19.07,19.07,0,0,0,5.85,3.23,22.94,22.94,0,0,0,7,1.24,25.7,25.7,0,0,0,8.37-1.2,22.18,22.18,0,0,0,6.86-3.56,16.92,16.92,0,0,0,4.57-5.4,12.83,12.83,0,0,0,1.49-6.73,20.9,20.9,0,0,0-.61-4c-.35-1.48-.78-3-1.28-4.51s-1-3-1.59-4.46-1.09-2.75-1.59-3.88-.92-2-1.26-2.71a8.12,8.12,0,0,0-.55-1l9.25-5.15c.07.1.28.53.63,1.3s.74,1.75,1.21,3,1,2.65,1.54,4.25,1.07,3.28,1.55,5,.91,3.55,1.26,5.38a35.83,35.83,0,0,1,.65,5.29,29,29,0,0,1-.51,7.18,27.27,27.27,0,0,1-2.32,6.85,26.74,26.74,0,0,1-4.15,6,24.32,24.32,0,0,1-6,4.78,28.88,28.88,0,0,1-8,3A37,37,0,0,1,26.92,335.31Zm9.84-53.48-7.52,7.51-7.55-7.55,7.51-7.52Z" transform="translate(-0.04 0.4)"/><path class="cls-1" d="M74.89,245.42a222.64,222.64,0,0,1,2,27.91q.07,20.9-.59,33.25L66,308.16a304.48,304.48,0,0,0,.71-30.47q-.63-16.05-2-29Z" transform="translate(-0.04 0.4)"/><path class="cls-1" d="M102.32,282.06q1.34,3.78,2.36,7.6c.29,1.08.58,2.21.87,3.4s.54,2.4.77,3.6.4,2.4.53,3.57a29.56,29.56,0,0,1,.19,3.28,22.52,22.52,0,0,1-1.08,6.91,30.15,30.15,0,0,1-3,6.49,37.74,37.74,0,0,1-4.52,6,56.87,56.87,0,0,1-5.69,5.36,64.89,64.89,0,0,1-6.49,4.68q-3.43,2.16-6.93,3.9l-4.49-9a62.17,62.17,0,0,0,5.51-3.05,59.92,59.92,0,0,0,5.18-3.56,46.5,46.5,0,0,0,4.56-4,30.23,30.23,0,0,0,3.62-4.33,20.79,20.79,0,0,0,2.38-4.57,13.6,13.6,0,0,0,.87-4.78,23.45,23.45,0,0,0-.51-4.72q-.51-2.48-1.22-4.92t-1.5-4.66c-.52-1.49-.95-2.8-1.3-4Z" transform="translate(-0.04 0.4)"/><path class="cls-1" d="M133.61,308.23a24.17,24.17,0,0,1-7.83-1.12,14.85,14.85,0,0,1-5.63-3.4,10.94,10.94,0,0,1-2.18-3,15.47,15.47,0,0,1-1.13-3.19,17.1,17.1,0,0,1-.41-3c0-.93-.06-1.74-.06-2.42,0-.84.06-2.23.1-4.17s.06-4.29.06-7.05c0-1.65,0-3.41,0-5.29s0-3.78-.06-5.73-.07-3.89-.14-5.84-.15-3.84-.27-5.65-.26-3.51-.43-5.09-.38-3-.62-4.24l9.88-2.95q.43,2.28.75,5.51t.51,6.87q.2,3.64.32,7.44t.12,7.22c0,.68,0,1.4,0,2.16s0,1.52,0,2.27,0,1.47,0,2.18v1.93c0,1,0,1.93,0,2.81s0,1.73,0,2.54,0,1.62,0,2.4,0,1.59,0,2.4a25.76,25.76,0,0,0,.07,2.82,3,3,0,0,0,.79,1.95c1,1,2.9,1.5,5.87,1.53h.35a4.84,4.84,0,0,1,1.95.41,5.67,5.67,0,0,1,1.61,1.1,5.22,5.22,0,0,1,1.1,1.62,4.81,4.81,0,0,1,0,3.93,5,5,0,0,1-1.1,1.6,5.36,5.36,0,0,1-1.61,1.06A5,5,0,0,1,133.61,308.23Z" transform="translate(-0.04 0.4)"/><path class="cls-1" d="M127.63,303.24a5.22,5.22,0,0,1,.39-2,4.57,4.57,0,0,1,1.1-1.61,5.51,5.51,0,0,1,1.71-1.07,6.14,6.14,0,0,1,2.23-.39h4.13q2.25,0,4.68-.06a36.22,36.22,0,0,0,4.67-.41,16.66,16.66,0,0,0,4-1.14,6.1,6.1,0,0,0,2.74-2.25v0a8.43,8.43,0,0,0,1.37-4.8,11.68,11.68,0,0,0-.13-1.73c-.1-.6-.22-1.23-.38-1.89v0a17,17,0,0,0-2-4,49.61,49.61,0,0,0-3.83-5.25q-2.33-2.81-5.28-5.78a75,75,0,0,0-6.21-5.61l1.06-9.41L169.26,242l4,9.37L147.3,262.19c1.16,1,2.37,2.09,3.65,3.29s2.51,2.45,3.71,3.79a50.3,50.3,0,0,1,4.61,5.91,38.06,38.06,0,0,1,3,5.51,27.14,27.14,0,0,1,1.69,5,20.25,20.25,0,0,1,.53,4.47,17.48,17.48,0,0,1-.73,5.2,22.59,22.59,0,0,1-1.75,4.25q-3.85,6.81-12.67,8.38v0a12.5,12.5,0,0,1-1.81.25c-.6,0-1.21.06-1.81.06l-12.71,0a6,6,0,0,1-2.19-.39,5.71,5.71,0,0,1-1.73-1.06A4.65,4.65,0,0,1,128,305.2,4.9,4.9,0,0,1,127.63,303.24Z" transform="translate(-0.04 0.4)"/><path class="cls-1" d="M215,308.23l-1,0a17,17,0,0,1-2-.23c-.8-.13-1.7-.33-2.71-.59a16,16,0,0,1-3.05-1.14,14.37,14.37,0,0,1-6.22-5.16,13.71,13.71,0,0,1-2.12-7.67q0-7.48,6.69-15.59c.76-.89,1.44-1.66,2.06-2.3s1.19-1.23,1.71-1.75l-1-.83a10.09,10.09,0,0,1-.79-.71l-.7-.59,6.37-7.79c1.05.82,2.41,2,4.09,3.51s3.72,3.58,6.1,6.17q9.88,11.26,9.88,19.88a14.06,14.06,0,0,1-2.06,7.59,14.54,14.54,0,0,1-5.65,5.2,16.41,16.41,0,0,1-2.68,1c-.92.26-1.8.47-2.63.63a22.23,22.23,0,0,1-2.37.32C216.15,308.21,215.53,308.23,215,308.23Zm8.39-14.83a7.28,7.28,0,0,0-.75-2.8,26.57,26.57,0,0,0-2-3.62,44.35,44.35,0,0,0-6.3-7.55,27.9,27.9,0,0,0-2.44,2.87A37.12,37.12,0,0,0,209.5,286a28,28,0,0,0-1.86,3.89,10,10,0,0,0-.75,3.53,3.05,3.05,0,0,0,.84,2.18,6.57,6.57,0,0,0,2.11,1.44,11.21,11.21,0,0,0,2.66.79A16,16,0,0,0,215,298a20.73,20.73,0,0,0,2.88-.2,10.16,10.16,0,0,0,2.71-.72,5.66,5.66,0,0,0,2-1.44A3.36,3.36,0,0,0,223.42,293.4Z" transform="translate(-0.04 0.4)"/><path class="cls-1" d="M266.71,308.23c-.32,0-.72,0-1.22,0a11.29,11.29,0,0,1-1.64-.17,15.26,15.26,0,0,1-1.9-.49,8.84,8.84,0,0,1-2-1,25,25,0,0,1-3,9.51,40.36,40.36,0,0,1-6.32,8.52,57.25,57.25,0,0,1-8.56,7.28,76.49,76.49,0,0,1-9.74,5.78l-4.41-9.09c1.84-.94,3.68-2,5.53-3.07a61.65,61.65,0,0,0,5.3-3.52,50.64,50.64,0,0,0,4.7-4,31.2,31.2,0,0,0,3.78-4.31,21.31,21.31,0,0,0,2.52-4.58,13.33,13.33,0,0,0,.92-4.84c0-.21,0-.43,0-.65s0-.44-.06-.65v0a29.36,29.36,0,0,0-.92-4.47c-.44-1.51-.9-3-1.4-4.38s-1-2.78-1.5-4.08-.91-2.47-1.25-3.52l9.44-3.94c1,3.07,2,5.61,2.89,7.62a23.36,23.36,0,0,0,2.74,4.76,8.25,8.25,0,0,0,2.81,2.44,7.22,7.22,0,0,0,3.17.69h.2a4.87,4.87,0,0,1,2,.41,5.59,5.59,0,0,1,1.62,1.1,5,5,0,0,1,1.08,1.62,5.1,5.1,0,0,1,0,3.91,5,5,0,0,1-1.08,1.6,4.78,4.78,0,0,1-1.64,1.06A5.34,5.34,0,0,1,266.71,308.23ZM257,265.81l-7.52,7.52-7.56-7.56,7.52-7.52Z" transform="translate(-0.04 0.4)"/><path class="cls-1" d="M261.19,303.2a5.09,5.09,0,0,1,.4-2,4.92,4.92,0,0,1,1.06-1.59,5.1,5.1,0,0,1,1.6-1.07,5,5,0,0,1,2-.39h3a58.59,58.59,0,0,0,5.89-.28,17.9,17.9,0,0,0,5-1.16,8.52,8.52,0,0,0,3.5-2.52,7.08,7.08,0,0,0,1.43-4.31,14.37,14.37,0,0,0-.07-2.08c-.08-.68-.21-1.41-.38-2.19s-.39-1.61-.65-2.53l-.9-3.19,9.64-2.72c.34,1.26.62,2.41.83,3.45s.38,2,.51,3,.24,1.93.33,2.93l.3,3.31c.08.89.19,1.83.35,2.81a10.36,10.36,0,0,0,.81,2.7,5.37,5.37,0,0,0,1.57,2,4.17,4.17,0,0,0,2.66.79,5.08,5.08,0,0,1,2,.39,5.39,5.39,0,0,1,1.61,1.07,4.67,4.67,0,0,1,1.08,1.59,5.09,5.09,0,0,1,.4,2,4.72,4.72,0,0,1-.42,2,5,5,0,0,1-1.1,1.6,5.39,5.39,0,0,1-1.59,1.06,4.86,4.86,0,0,1-1.93.39,15.35,15.35,0,0,1-6.52-1.25,13.9,13.9,0,0,1-4.46-3.27,15.36,15.36,0,0,1-3.92,2.12,29.9,29.9,0,0,1-4.9,1.4,47.08,47.08,0,0,1-5.47.77c-1.89.16-3.75.23-5.59.23h-3a5,5,0,0,1-5-5ZM279.73,322,273,328.7,266.27,322l6.69-6.73Zm14.88,0-6.69,6.73L281.15,322l6.69-6.69Z" transform="translate(-0.04 0.4)"/><path class="cls-1" d="M294.45,303.24a5.22,5.22,0,0,1,.39-2,4.59,4.59,0,0,1,1.11-1.61,5.29,5.29,0,0,1,1.71-1.07,6.09,6.09,0,0,1,2.22-.39H304c1.5,0,3.06,0,4.69-.06a36.22,36.22,0,0,0,4.66-.41,16.66,16.66,0,0,0,4-1.14,6.1,6.1,0,0,0,2.74-2.25v0a8.36,8.36,0,0,0,1.38-4.8,11.73,11.73,0,0,0-.14-1.73c-.09-.6-.22-1.23-.37-1.89v0a17,17,0,0,0-2-4,49.81,49.81,0,0,0-3.84-5.25q-2.32-2.81-5.27-5.78a75.15,75.15,0,0,0-6.22-5.61l1.06-9.41L336.09,242l4,9.37-25.93,10.82c1.15,1,2.37,2.09,3.64,3.29s2.51,2.45,3.72,3.79a50.16,50.16,0,0,1,4.6,5.91,37.13,37.13,0,0,1,3.05,5.51,26.41,26.41,0,0,1,1.69,5,20.3,20.3,0,0,1,.54,4.47,17.8,17.8,0,0,1-.73,5.2,24,24,0,0,1-1.75,4.25Q325,306.43,316.21,308v0a12.31,12.31,0,0,1-1.81.25c-.6,0-1.2.06-1.81.06l-12.71,0a6,6,0,0,1-2.18-.39,5.47,5.47,0,0,1-1.73-1.06,4.67,4.67,0,0,1-1.13-1.58A4.9,4.9,0,0,1,294.45,303.24Z" transform="translate(-0.04 0.4)"/><path class="cls-1" d="M367.73,308.23a24.09,24.09,0,0,1-7.83-1.12,14.85,14.85,0,0,1-5.63-3.4,10.78,10.78,0,0,1-2.19-3,16,16,0,0,1-1.12-3.19,17.1,17.1,0,0,1-.41-3c0-.93-.06-1.74-.06-2.42,0-.84.06-2.23.1-4.17s.06-4.29.06-7.05c0-1.65,0-3.41,0-5.29s0-3.78-.06-5.73-.07-3.89-.14-5.84-.16-3.84-.27-5.65-.27-3.51-.44-5.09-.37-3-.61-4.24l9.88-2.95q.43,2.28.75,5.51t.51,6.87c.13,2.43.24,4.91.31,7.44s.12,4.94.12,7.22c0,.68,0,1.4,0,2.16s0,1.52,0,2.27,0,1.47,0,2.18v1.93c0,1,0,1.93,0,2.81s0,1.73,0,2.54,0,1.62,0,2.4,0,1.59,0,2.4a25.66,25.66,0,0,0,.08,2.82,2.93,2.93,0,0,0,.79,1.95c.94,1,2.9,1.5,5.86,1.53h.36a4.84,4.84,0,0,1,1.95.41,5.67,5.67,0,0,1,1.61,1.1,5.22,5.22,0,0,1,1.1,1.62,4.91,4.91,0,0,1,0,3.93,5,5,0,0,1-1.1,1.6,5.36,5.36,0,0,1-1.61,1.06A5,5,0,0,1,367.73,308.23Z" transform="translate(-0.04 0.4)"/><path class="cls-1" d="M362.61,303.2a5.08,5.08,0,0,1,.39-2,4.84,4.84,0,0,1,1.09-1.59,5.42,5.42,0,0,1,1.59-1.07,4.91,4.91,0,0,1,2-.39h6.26c1.28,0,2.65-.05,4.09-.14a28.65,28.65,0,0,0,4.15-.55,17.08,17.08,0,0,0,3.6-1.14,5.62,5.62,0,0,0,2.4-1.87,4.09,4.09,0,0,0,.61-2.32,13,13,0,0,0-.39-3.19,35,35,0,0,0-1.1-3.64c-.46-1.27-.95-2.51-1.48-3.7s-1-2.32-1.55-3.38-.94-2-1.28-2.7l9.17-4.52a35.15,35.15,0,0,1,2.1,4.54,53.52,53.52,0,0,1,1.83,5.49c.53,1.89.95,3.75,1.28,5.59a27.92,27.92,0,0,1,.49,4.88,17.09,17.09,0,0,1-1.29,6.81,14.78,14.78,0,0,1-4.22,5.68,16.67,16.67,0,0,1-9.3,3.82c-1.14.12-2.31.21-3.49.28s-2.3.1-3.36.11-1.88,0-2.46,0h-6.06a4.91,4.91,0,0,1-2-.39,5.39,5.39,0,0,1-1.59-1.06,4.93,4.93,0,0,1-1.48-3.58Zm12.2,24.67-6.69-6.73,6.77-6.73,6.69,6.69Zm7.52-1.57,6.14,6.14-6.18,6.18-6.14-6.14Zm7.36,1.49L383,321.1l6.77-6.77,6.69,6.73Z" transform="translate(-0.04 0.4)"/><path class="cls-3" d="M170.71,442.81a40.67,40.67,0,0,1-10.17-1.64,20.73,20.73,0,0,1-7.78-4.33,22.16,22.16,0,0,1-3.55-4,25.08,25.08,0,0,1-2.51-4.68,25.4,25.4,0,0,1-1.48-5.15,31,31,0,0,1-.48-5.49,41.6,41.6,0,0,1,1.79-12,42.17,42.17,0,0,1,5.28-11.25l7.49,5.43a28.27,28.27,0,0,0-1.69,2.82,36.5,36.5,0,0,0-1.94,4.29,39,39,0,0,0-1.58,5.25,25.19,25.19,0,0,0-.64,5.66,13.27,13.27,0,0,0,1.42,6.16,15,15,0,0,0,3.86,4.77,18.31,18.31,0,0,0,5.65,3.12,22,22,0,0,0,6.78,1.19,24.51,24.51,0,0,0,8.08-1.16,21,21,0,0,0,6.63-3.44,16.18,16.18,0,0,0,4.41-5.2,12.43,12.43,0,0,0,1.45-6.5,21.77,21.77,0,0,0-.59-3.9c-.35-1.43-.76-2.88-1.24-4.35s-1-2.91-1.54-4.32-1.06-2.65-1.54-3.74-.89-2-1.21-2.62a6.2,6.2,0,0,0-.54-1l8.94-5a11.76,11.76,0,0,1,.6,1.25c.33.74.73,1.7,1.18,2.89s1,2.56,1.49,4.11,1,3.17,1.5,4.86.87,3.43,1.21,5.19a34.92,34.92,0,0,1,.63,5.11,28,28,0,0,1-.49,6.94,26.2,26.2,0,0,1-2.25,6.61,25.51,25.51,0,0,1-4,5.84,23.49,23.49,0,0,1-5.81,4.62,28,28,0,0,1-7.7,2.91A36.13,36.13,0,0,1,170.71,442.81Zm9.5-51.66L173,398.41l-7.3-7.3,7.26-7.26Z" transform="translate(-0.04 0.4)"/><path class="cls-3" d="M226.13,416.66a23.46,23.46,0,0,1-7.57-1.09,14.44,14.44,0,0,1-5.43-3.29,10.2,10.2,0,0,1-2.11-2.94,15,15,0,0,1-1.09-3.08,15.86,15.86,0,0,1-.4-2.85c0-.9-.05-1.68-.05-2.34s.05-2.15.09-4,.06-4.14.06-6.8c0-1.6,0-3.3,0-5.12s0-3.65-.06-5.53-.07-3.75-.13-5.64-.15-3.71-.27-5.45-.25-3.39-.41-4.93-.37-2.89-.59-4.08l9.54-2.85q.42,2.21.72,5.32c.2,2.08.37,4.29.49,6.63s.23,4.74.31,7.18.11,4.78.11,7c0,.66,0,1.36,0,2.09s0,1.46,0,2.19,0,1.42,0,2.11V391c0,1,0,1.87,0,2.72s0,1.66,0,2.45,0,1.56,0,2.32,0,1.53,0,2.31a23.85,23.85,0,0,0,.08,2.72,2.84,2.84,0,0,0,.76,1.88c.91,1,2.8,1.46,5.66,1.49h.35a4.54,4.54,0,0,1,1.88.4,5.25,5.25,0,0,1,1.56,1.06,5.19,5.19,0,0,1,1.06,1.56,4.47,4.47,0,0,1,.4,1.88,4.62,4.62,0,0,1-.4,1.92,5.09,5.09,0,0,1-1.06,1.54,5.36,5.36,0,0,1-1.56,1A4.86,4.86,0,0,1,226.13,416.66Z" transform="translate(-0.04 0.4)"/><path class="cls-3" d="M220.92,411.79a4.91,4.91,0,0,1,1.4-3.46,4.93,4.93,0,0,1,1.54-1,4.78,4.78,0,0,1,1.92-.39h2.89c2,0,3.87-.08,5.68-.26a17.31,17.31,0,0,0,4.83-1.12,8.22,8.22,0,0,0,3.39-2.43,7,7,0,0,0,1.38-4.17,13.42,13.42,0,0,0-.07-2c-.08-.66-.2-1.36-.36-2.11s-.38-1.57-.63-2.45-.55-1.92-.88-3.08l9.32-2.62c.33,1.21.59,2.32.8,3.32s.36,2,.49,2.89.23,1.87.32,2.83.19,2,.29,3.19c.07.87.19,1.77.34,2.72a9.68,9.68,0,0,0,.78,2.61,5.19,5.19,0,0,0,1.52,1.93,4,4,0,0,0,2.57.76,4.69,4.69,0,0,1,1.91.39,4.9,4.9,0,0,1,1.56,1,4.73,4.73,0,0,1,1,1.54,4.94,4.94,0,0,1,.38,1.92,4.62,4.62,0,0,1-.4,1.92,5.09,5.09,0,0,1-1.06,1.54,5.4,5.4,0,0,1-1.54,1,4.74,4.74,0,0,1-1.87.38,14.64,14.64,0,0,1-6.29-1.22,13.35,13.35,0,0,1-4.31-3.16,15.12,15.12,0,0,1-3.78,2.06,31.4,31.4,0,0,1-4.74,1.35,46,46,0,0,1-5.28.74c-1.82.15-3.62.23-5.4.23h-2.89a4.94,4.94,0,0,1-1.92-.38,5.13,5.13,0,0,1-1.54-1,4.91,4.91,0,0,1-1.4-3.46ZM238.82,430l-6.46,6.46-6.54-6.5,6.46-6.5Zm14.37,0-6.46,6.5L240.19,430l6.46-6.46Z" transform="translate(-0.04 0.4)"/><path class="cls-3" d="M254.1,411.83a4.83,4.83,0,0,1,1.35-3.35,5.52,5.52,0,0,1,1.46-1.06,5,5,0,0,1,1.79-.5,8.69,8.69,0,0,0,4.05-.91,10.36,10.36,0,0,0,3.08-2.43,16.14,16.14,0,0,0,2.26-3.46,34.86,34.86,0,0,0,1.65-4c.47-1.37.88-2.72,1.22-4.05s.65-2.53.93-3.59l9.5,2.09c-.22.71-.52,1.62-.89,2.72s-.73,2.27-1.08,3.49a37.36,37.36,0,0,0-.88,3.73,13.56,13.56,0,0,0-.23,3.38,4.57,4.57,0,0,0,.82,2.44,2.71,2.71,0,0,0,2.3.93,5.24,5.24,0,0,0,3.08-1,10.13,10.13,0,0,0,2.45-2.55,18.69,18.69,0,0,0,1.9-3.59,36.51,36.51,0,0,0,1.41-4.13c.39-1.4.72-2.78,1-4.12s.47-2.55.62-3.61l8.9,1.71c-.08.79-.2,1.61-.36,2.47s-.34,1.76-.51,2.68-.33,1.89-.46,2.89a24,24,0,0,0-.19,3.1,10.39,10.39,0,0,0,.25,2.35,5.48,5.48,0,0,0,.83,2,4.24,4.24,0,0,0,1.56,1.37,5.32,5.32,0,0,0,2.38.55,6.85,6.85,0,0,0,4.41-1.37,5,5,0,0,0,1.71-4.18,19.84,19.84,0,0,0-.56-4.45,46.55,46.55,0,0,0-1.33-4.69c-.52-1.53-1.07-3-1.65-4.3s-1.09-2.44-1.52-3.32l8.17-4.56c.16.28.4.79.74,1.54s.73,1.65,1.16,2.71.88,2.27,1.35,3.62.9,2.75,1.28,4.21.69,3,.95,4.55a28.87,28.87,0,0,1,.38,4.58,17.68,17.68,0,0,1-1.09,6.38,12.94,12.94,0,0,1-3.19,4.87,14.45,14.45,0,0,1-5.19,3.1,20.59,20.59,0,0,1-7.07,1,10.84,10.84,0,0,1-3.48-.45,10.49,10.49,0,0,1-2.77-1.35,12.21,12.21,0,0,1-2.21-2,23.21,23.21,0,0,1-1.73-2.24,17,17,0,0,1-1.9,2.35,11,11,0,0,1-2.37,1.86,12.63,12.63,0,0,1-3,1.28,15.56,15.56,0,0,1-3.9.51,10.33,10.33,0,0,1-3.38-.44,10.44,10.44,0,0,1-2.76-1.29,11.68,11.68,0,0,1-2.24-1.92,19.52,19.52,0,0,1-1.84-2.32,17.6,17.6,0,0,1-1.68,2.08,9.27,9.27,0,0,1-2.31,1.76,13.53,13.53,0,0,1-3.29,1.24,19.15,19.15,0,0,1-4.58.47h-.65a4.57,4.57,0,0,1-1.79-.43,5,5,0,0,1-2.45-2.59A4.68,4.68,0,0,1,254.1,411.83Z" transform="translate(-0.04 0.4)"/><path class="cls-3" d="M341.68,391.38c.86,2.43,1.62,4.88,2.28,7.33.28,1,.56,2.14.84,3.29s.52,2.31.74,3.48.38,2.31.51,3.44a27.81,27.81,0,0,1,.19,3.17,21.64,21.64,0,0,1-1.05,6.68,29.48,29.48,0,0,1-2.88,6.27,36.82,36.82,0,0,1-4.38,5.76,55.17,55.17,0,0,1-5.49,5.17,62.08,62.08,0,0,1-6.27,4.52,71.83,71.83,0,0,1-6.69,3.76l-4.33-8.7q2.7-1.33,5.32-2.95a59.63,59.63,0,0,0,5-3.44,44.46,44.46,0,0,0,4.41-3.86,28.87,28.87,0,0,0,3.49-4.18,19.79,19.79,0,0,0,2.3-4.41,13.15,13.15,0,0,0,.84-4.62,22.62,22.62,0,0,0-.5-4.56c-.32-1.59-.72-3.18-1.17-4.75s-.94-3.07-1.45-4.5-.92-2.71-1.25-3.82Z" transform="translate(-0.04 0.4)"/><path class="cls-3" d="M371.9,416.66a23.51,23.51,0,0,1-7.57-1.09,14.44,14.44,0,0,1-5.43-3.29,10.4,10.4,0,0,1-2.11-2.94,15,15,0,0,1-1.09-3.08,15.81,15.81,0,0,1-.39-2.85q-.06-1.35-.06-2.34c0-.81.06-2.15.09-4s.06-4.14.06-6.8c0-1.6,0-3.3,0-5.12s0-3.65-.06-5.53-.07-3.75-.13-5.64-.15-3.71-.26-5.45-.26-3.39-.42-4.93-.36-2.89-.59-4.08l9.54-2.85q.42,2.21.72,5.32c.2,2.08.37,4.29.49,6.63s.23,4.74.31,7.18.11,4.78.11,7c0,.66,0,1.36,0,2.09s0,1.46,0,2.19,0,1.42,0,2.11V391c0,1,0,1.87,0,2.72s0,1.66,0,2.45,0,1.56,0,2.32,0,1.53,0,2.31a23.94,23.94,0,0,0,.07,2.72,2.84,2.84,0,0,0,.76,1.88c.91,1,2.8,1.46,5.66,1.49h.35a4.5,4.5,0,0,1,1.88.4,5.25,5.25,0,0,1,1.56,1.06,5,5,0,0,1,1.06,1.56,4.47,4.47,0,0,1,.4,1.88,4.62,4.62,0,0,1-.4,1.92,4.92,4.92,0,0,1-1.06,1.54,5.36,5.36,0,0,1-1.56,1A4.82,4.82,0,0,1,371.9,416.66Z" transform="translate(-0.04 0.4)"/><path class="cls-3" d="M367,411.79a4.77,4.77,0,0,1,.38-1.92,4.71,4.71,0,0,1,1-1.54,5.17,5.17,0,0,1,1.54-1,4.61,4.61,0,0,1,1.9-.39h6.05c1.24,0,2.55,0,3.95-.13a28.31,28.31,0,0,0,4-.53,16.91,16.91,0,0,0,3.48-1.1,5.44,5.44,0,0,0,2.32-1.81,4,4,0,0,0,.58-2.24,12.1,12.1,0,0,0-.38-3.08,32.69,32.69,0,0,0-1.06-3.52c-.44-1.22-.92-2.42-1.42-3.57s-1-2.24-1.51-3.27-.9-1.89-1.23-2.6l8.86-4.37a35.48,35.48,0,0,1,2,4.39,54.87,54.87,0,0,1,1.77,5.3q.75,2.73,1.23,5.4a26.82,26.82,0,0,1,.48,4.71,16.33,16.33,0,0,1-1.26,6.58,14.22,14.22,0,0,1-4.07,5.49,17.45,17.45,0,0,1-6.23,3.21,18.1,18.1,0,0,1-2.75.48c-1.11.11-2.23.2-3.37.26s-2.22.1-3.25.12l-2.37,0h-5.86a4.77,4.77,0,0,1-1.9-.38,5.4,5.4,0,0,1-1.54-1,4.71,4.71,0,0,1-1-1.54A4.77,4.77,0,0,1,367,411.79Zm11.78,23.83-6.46-6.5,6.54-6.5,6.46,6.47ZM386,434.1l5.93,5.93-6,6L380,440.07Zm7.11,1.45-6.46-6.46,6.53-6.54,6.47,6.5Z" transform="translate(-0.04 0.4)"/></svg>